<mxfile host="app.diagrams.net" modified="2024-07-04T13:40:52.663Z" agent="Mozilla/5.0 (Windows NT 10.0; Win64; x64) AppleWebKit/537.36 (KHTML, like Gecko) Chrome/126.0.0.0 Safari/537.36" etag="_w_DerVDdo1C-rJ_51Jb" version="24.6.4" type="google">
  <diagram id="C5RBs43oDa-KdzZeNtuy" name="Page-1">
    <mxGraphModel grid="1" page="1" gridSize="10" guides="1" tooltips="1" connect="1" arrows="1" fold="1" pageScale="1" pageWidth="827" pageHeight="1169" math="0" shadow="0">
      <root>
        <mxCell id="WIyWlLk6GJQsqaUBKTNV-0" />
        <mxCell id="WIyWlLk6GJQsqaUBKTNV-1" parent="WIyWlLk6GJQsqaUBKTNV-0" />
        <mxCell id="Q2orEd7A_ef-txgVLFig-0" value="" style="edgeStyle=orthogonalEdgeStyle;rounded=0;orthogonalLoop=1;jettySize=auto;html=1;" edge="1" parent="WIyWlLk6GJQsqaUBKTNV-1" source="gWst5YTTh0fsfGDfgIry-0" target="gWst5YTTh0fsfGDfgIry-2">
          <mxGeometry relative="1" as="geometry" />
        </mxCell>
        <mxCell id="gWst5YTTh0fsfGDfgIry-0" value="Begin" style="ellipse;whiteSpace=wrap;html=1;" vertex="1" parent="WIyWlLk6GJQsqaUBKTNV-1">
          <mxGeometry x="360" y="80" width="120" height="80" as="geometry" />
        </mxCell>
        <mxCell id="Q2orEd7A_ef-txgVLFig-1" value="" style="edgeStyle=orthogonalEdgeStyle;rounded=0;orthogonalLoop=1;jettySize=auto;html=1;" edge="1" parent="WIyWlLk6GJQsqaUBKTNV-1" source="gWst5YTTh0fsfGDfgIry-2" target="gWst5YTTh0fsfGDfgIry-3">
          <mxGeometry relative="1" as="geometry" />
        </mxCell>
        <mxCell id="gWst5YTTh0fsfGDfgIry-2" value="Input ĐLM" style="shape=parallelogram;perimeter=parallelogramPerimeter;whiteSpace=wrap;html=1;fixedSize=1;" vertex="1" parent="WIyWlLk6GJQsqaUBKTNV-1">
          <mxGeometry x="330" y="200" width="180" height="60" as="geometry" />
        </mxCell>
        <mxCell id="Q2orEd7A_ef-txgVLFig-2" value="" style="edgeStyle=orthogonalEdgeStyle;rounded=0;orthogonalLoop=1;jettySize=auto;html=1;" edge="1" parent="WIyWlLk6GJQsqaUBKTNV-1" source="gWst5YTTh0fsfGDfgIry-3" target="gWst5YTTh0fsfGDfgIry-5">
          <mxGeometry relative="1" as="geometry" />
        </mxCell>
        <mxCell id="gWst5YTTh0fsfGDfgIry-3" value="VND = ĐLM * 22.000" style="whiteSpace=wrap;html=1;" vertex="1" parent="WIyWlLk6GJQsqaUBKTNV-1">
          <mxGeometry x="350" y="300" width="140" height="80" as="geometry" />
        </mxCell>
        <mxCell id="Q2orEd7A_ef-txgVLFig-3" value="" style="edgeStyle=orthogonalEdgeStyle;rounded=0;orthogonalLoop=1;jettySize=auto;html=1;" edge="1" parent="WIyWlLk6GJQsqaUBKTNV-1" source="gWst5YTTh0fsfGDfgIry-5" target="gWst5YTTh0fsfGDfgIry-6">
          <mxGeometry relative="1" as="geometry" />
        </mxCell>
        <mxCell id="gWst5YTTh0fsfGDfgIry-5" value="Output VND" style="shape=parallelogram;perimeter=parallelogramPerimeter;whiteSpace=wrap;html=1;fixedSize=1;" vertex="1" parent="WIyWlLk6GJQsqaUBKTNV-1">
          <mxGeometry x="330" y="420" width="180" height="60" as="geometry" />
        </mxCell>
        <mxCell id="gWst5YTTh0fsfGDfgIry-6" value="End" style="ellipse;whiteSpace=wrap;html=1;" vertex="1" parent="WIyWlLk6GJQsqaUBKTNV-1">
          <mxGeometry x="360" y="520" width="120" height="80" as="geometry" />
        </mxCell>
      </root>
    </mxGraphModel>
  </diagram>
</mxfile>
